<svg xmlns="http://www.w3.org/2000/svg" viewBox="0 0 32 32">
  <defs>
    <linearGradient id="leafGrad" x1="0%" y1="0%" x2="100%" y2="100%">
      <stop offset="0%" style="stop-color:#047857"/>
      <stop offset="50%" style="stop-color:#15803d"/>
      <stop offset="100%" style="stop-color:#166534"/>
    </linearGradient>
    <linearGradient id="homeGrad" x1="0%" y1="0%" x2="100%" y2="100%">
      <stop offset="0%" style="stop-color:#7c3aed"/>
      <stop offset="100%" style="stop-color:#a855f7"/>
    </linearGradient>
  </defs>

  <!-- House base -->
  <path d="M6 18v10h20V18L16 8l-10 10z" fill="url(#homeGrad)" stroke="#581c87" stroke-width="1"/>

  <!-- Roof -->
  <path d="M4 18L16 6l12 12H4z" fill="#dc2626" stroke="#991b1b" stroke-width="1"/>

  <!-- Door -->
  <rect x="14" y="22" width="4" height="6" fill="#92400e" stroke="#78350f" stroke-width="0.5"/>

  <!-- Windows -->
  <rect x="8" y="20" width="3" height="3" fill="#fbbf24" stroke="#f59e0b" stroke-width="0.5"/>
  <rect x="21" y="20" width="3" height="3" fill="#fbbf24" stroke="#f59e0b" stroke-width="0.5"/>

  <!-- Plant/leaves decoration -->
  <path d="M2 26c2-2 4-1 5 0 1 1 2 3 1 4-1 1-3 0-4-1-2-1-3-2-2-3z" fill="url(#leafGrad)"/>
  <path d="M29 26c-2-2-4-1-5 0-1 1-2 3-1 4 1 1 3 0 4-1 2-1 3-2 2-3z" fill="url(#leafGrad)"/>

  <!-- Small decorative leaves -->
  <circle cx="4" cy="24" r="1" fill="#22c55e"/>
  <circle cx="28" cy="24" r="1" fill="#22c55e"/>
</svg>